<svg xmlns="http://www.w3.org/2000/svg" xmlns:xlink="http://www.w3.org/1999/xlink" width="636" height="636" viewBox="0 0 636 636">
  <defs>
    <linearGradient id="linear-gradient" x1="0.476" x2="0.957" y2="0.658" gradientUnits="objectBoundingBox">
      <stop offset="0" stop-color="#00ebff"/>
      <stop offset="1" stop-color="#6b41fc"/>
    </linearGradient>
  </defs>
  <path id="Subtraction_3" data-name="Subtraction 3" d="M318,636a323.072,323.072,0,0,1-32.514-1.642,318.77,318.77,0,0,1-31.575-4.819c-10.245-2.1-20.5-4.733-30.475-7.836-9.865-3.068-19.695-6.666-29.216-10.693-9.433-3.99-18.786-8.5-27.8-13.391-8.948-4.861-17.769-10.22-26.219-15.929A319.755,319.755,0,0,1,54.309,495.8c-5.709-8.45-11.068-17.271-15.929-26.219-4.9-9.012-9.4-18.365-13.391-27.8-4.027-9.522-7.625-19.351-10.693-29.216-3.1-9.977-5.739-20.23-7.836-30.475a318.772,318.772,0,0,1-4.819-31.574,322.782,322.782,0,0,1,0-65.027,318.809,318.809,0,0,1,4.819-31.575c2.1-10.245,4.733-20.5,7.836-30.475,3.068-9.865,6.666-19.695,10.693-29.216,3.99-9.433,8.5-18.786,13.391-27.8,4.861-8.948,10.22-17.769,15.929-26.219A319.754,319.754,0,0,1,140.2,54.309c8.45-5.709,17.271-11.068,26.219-15.929,9.012-4.9,18.365-9.4,27.8-13.391,9.522-4.027,19.351-7.625,29.216-10.693,9.977-3.1,20.23-5.739,30.475-7.836a318.809,318.809,0,0,1,31.575-4.819,322.782,322.782,0,0,1,65.027,0,318.772,318.772,0,0,1,31.574,4.819c10.245,2.1,20.5,4.733,30.475,7.836,9.865,3.068,19.695,6.666,29.216,10.693,9.433,3.99,18.786,8.5,27.8,13.391,8.948,4.861,17.769,10.22,26.219,15.929A319.755,319.755,0,0,1,581.69,140.2c5.709,8.45,11.068,17.271,15.929,26.219,4.9,9.012,9.4,18.364,13.391,27.8,4.027,9.522,7.625,19.351,10.693,29.216,3.1,9.977,5.74,20.231,7.836,30.475a318.77,318.77,0,0,1,4.819,31.575,322.731,322.731,0,0,1,0,65.027,318.777,318.777,0,0,1-4.819,31.574c-2.1,10.245-4.733,20.5-7.836,30.475-3.068,9.865-6.666,19.695-10.693,29.216-3.99,9.434-8.5,18.786-13.391,27.8-4.861,8.948-10.22,17.769-15.929,26.219A319.757,319.757,0,0,1,495.8,581.69c-8.45,5.709-17.271,11.068-26.219,15.929-9.012,4.9-18.364,9.4-27.8,13.391-9.522,4.027-19.351,7.625-29.216,10.693-9.977,3.1-20.231,5.74-30.475,7.836a318.777,318.777,0,0,1-31.574,4.819A323.069,323.069,0,0,1,318,636Zm0-526.276a209.825,209.825,0,0,0-41.975,4.231,207.14,207.14,0,0,0-74.474,31.339,208.884,208.884,0,0,0-75.46,91.636,207.237,207.237,0,0,0-12.136,39.1,210.317,210.317,0,0,0,0,83.95,207.14,207.14,0,0,0,31.339,74.474,208.884,208.884,0,0,0,91.636,75.46,207.222,207.222,0,0,0,39.1,12.136,210.3,210.3,0,0,0,83.95,0,207.138,207.138,0,0,0,74.474-31.339,208.883,208.883,0,0,0,75.46-91.635,207.221,207.221,0,0,0,12.136-39.1,210.3,210.3,0,0,0,0-83.95,207.138,207.138,0,0,0-31.339-74.474,208.883,208.883,0,0,0-91.635-75.46,207.245,207.245,0,0,0-39.1-12.136A209.825,209.825,0,0,0,318,109.724Z" transform="translate(0 0)" fill="url(#linear-gradient)"/>
</svg>
